<svg width="37" height="36" viewBox="0 0 37 36" fill="none" xmlns="http://www.w3.org/2000/svg">
<path d="M13.8752 19.5C14.7266 19.5 15.4168 18.8284 15.4168 18C15.4168 17.1716 14.7266 16.5 13.8752 16.5C13.0237 16.5 12.3335 17.1716 12.3335 18C12.3335 18.8284 13.0237 19.5 13.8752 19.5Z" stroke="currentColor" stroke-width="2" stroke-linecap="round" stroke-linejoin="round"/>
<path d="M13.8752 9C14.7266 9 15.4168 8.32843 15.4168 7.5C15.4168 6.67157 14.7266 6 13.8752 6C13.0237 6 12.3335 6.67157 12.3335 7.5C12.3335 8.32843 13.0237 9 13.8752 9Z" stroke="currentColor" stroke-width="2" stroke-linecap="round" stroke-linejoin="round"/>
<path d="M13.8752 30C14.7266 30 15.4168 29.3284 15.4168 28.5C15.4168 27.6716 14.7266 27 13.8752 27C13.0237 27 12.3335 27.6716 12.3335 28.5C12.3335 29.3284 13.0237 30 13.8752 30Z" stroke="currentColor" stroke-width="2" stroke-linecap="round" stroke-linejoin="round"/>
<path d="M23.1252 19.5C23.9766 19.5 24.6668 18.8284 24.6668 18C24.6668 17.1716 23.9766 16.5 23.1252 16.5C22.2737 16.5 21.5835 17.1716 21.5835 18C21.5835 18.8284 22.2737 19.5 23.1252 19.5Z" stroke="currentColor" stroke-width="2" stroke-linecap="round" stroke-linejoin="round"/>
<path d="M23.1252 9C23.9766 9 24.6668 8.32843 24.6668 7.5C24.6668 6.67157 23.9766 6 23.1252 6C22.2737 6 21.5835 6.67157 21.5835 7.5C21.5835 8.32843 22.2737 9 23.1252 9Z" stroke="currentColor" stroke-width="2" stroke-linecap="round" stroke-linejoin="round"/>
<path d="M23.1252 30C23.9766 30 24.6668 29.3284 24.6668 28.5C24.6668 27.6716 23.9766 27 23.1252 27C22.2737 27 21.5835 27.6716 21.5835 28.5C21.5835 29.3284 22.2737 30 23.1252 30Z" stroke="currentColor" stroke-width="2" stroke-linecap="round" stroke-linejoin="round"/>
</svg>
