<svg width="36" height="36" viewBox="0 0 36 36" fill="none" xmlns="http://www.w3.org/2000/svg">
<path d="M18 4.5V22.5" stroke="black" stroke-width="2" stroke-linecap="round" stroke-linejoin="round"/>
<path d="M12 16.5L18 22.5L24 16.5" stroke="black" stroke-width="2" stroke-linecap="round" stroke-linejoin="round"/>
<path d="M12 7.5H6C5.20435 7.5 4.44129 7.81607 3.87868 8.37868C3.31607 8.94129 3 9.70435 3 10.5V25.5C3 26.2956 3.31607 27.0587 3.87868 27.6213C4.44129 28.1839 5.20435 28.5 6 28.5H30C30.7956 28.5 31.5587 28.1839 32.1213 27.6213C32.6839 27.0587 33 26.2956 33 25.5V10.5C33 9.70435 32.6839 8.94129 32.1213 8.37868C31.5587 7.81607 30.7956 7.5 30 7.5H24" stroke="black" stroke-width="2" stroke-linecap="round" stroke-linejoin="round"/>
</svg>
