<svg  viewBox="0 0 55 55" fill="none" xmlns="http://www.w3.org/2000/svg">
<g opacity="0.5">
<path d="M9.5 45.7202H45.5C46.6935 45.7202 47.8381 45.2461 48.682 44.4022C49.5259 43.5583 50 42.4137 50 41.2202V18.7202C50 17.5267 49.5259 16.3821 48.682 15.5382C47.8381 14.6943 46.6935 14.2202 45.5 14.2202H27.6575C26.9163 14.2164 26.1876 14.0295 25.536 13.6763C24.8844 13.323 24.3301 12.8142 23.9225 12.1952L22.0775 9.49522C21.6699 8.87619 21.1156 8.36744 20.464 8.01417C19.8124 7.6609 19.0837 7.47405 18.3425 7.47021H9.5C8.30653 7.47021 7.16193 7.94432 6.31802 8.78823C5.47411 9.63215 5 10.7767 5 11.9702V41.2202C5 43.6952 7.025 45.7202 9.5 45.7202Z" stroke="black" stroke-width="2" stroke-linecap="round" stroke-linejoin="round"/>
<path d="M5 23.2202H50" stroke="black" stroke-width="2" stroke-linecap="round" stroke-linejoin="round"/>
</g>
</svg>
