<svg width="36" height="36" viewBox="0 0 36 36" fill="none" xmlns="http://www.w3.org/2000/svg">
<path d="M22.5002 33V27C22.7089 25.1209 22.1701 23.2352 21.0002 21.75C25.5002 21.75 30.0002 18.75 30.0002 13.5C30.1202 11.625 29.5952 9.78 28.5002 8.25C28.9202 6.525 28.9202 4.725 28.5002 3C28.5002 3 27.0002 3 24.0002 5.25C20.0402 4.5 15.9602 4.5 12.0002 5.25C9.00018 3 7.50018 3 7.50018 3C7.05018 4.725 7.05018 6.525 7.50018 8.25C6.40799 9.77383 5.87789 11.6292 6.00018 13.5C6.00018 18.75 10.5002 21.75 15.0002 21.75C14.4152 22.485 13.9802 23.325 13.7252 24.225C13.4702 25.125 13.3952 26.07 13.5002 27V33" stroke="currentColor" stroke-width="2" stroke-linecap="round" stroke-linejoin="round"/>
<path d="M13.5 27C6.735 30 6 24 3 24" stroke="currentColor" stroke-width="2" stroke-linecap="round" stroke-linejoin="round"/>
</svg>
