<svg width="36" height="36" viewBox="0 0 36 36" fill="none" xmlns="http://www.w3.org/2000/svg">
<path d="M18 15C18.8284 15 19.5 14.3284 19.5 13.5C19.5 12.6716 18.8284 12 18 12C17.1716 12 16.5 12.6716 16.5 13.5C16.5 14.3284 17.1716 15 18 15Z" stroke="currentColor" stroke-width="2" stroke-linecap="round" stroke-linejoin="round"/>
<path d="M28.5 15C29.3284 15 30 14.3284 30 13.5C30 12.6716 29.3284 12 28.5 12C27.6716 12 27 12.6716 27 13.5C27 14.3284 27.6716 15 28.5 15Z" stroke="currentColor" stroke-width="2" stroke-linecap="round" stroke-linejoin="round"/>
<path d="M7.5 15C8.32843 15 9 14.3284 9 13.5C9 12.6716 8.32843 12 7.5 12C6.67157 12 6 12.6716 6 13.5C6 14.3284 6.67157 15 7.5 15Z" stroke="currentColor" stroke-width="2" stroke-linecap="round" stroke-linejoin="round"/>
<path d="M18 24C18.8284 24 19.5 23.3284 19.5 22.5C19.5 21.6716 18.8284 21 18 21C17.1716 21 16.5 21.6716 16.5 22.5C16.5 23.3284 17.1716 24 18 24Z" stroke="currentColor" stroke-width="2" stroke-linecap="round" stroke-linejoin="round"/>
<path d="M28.5 24C29.3284 24 30 23.3284 30 22.5C30 21.6716 29.3284 21 28.5 21C27.6716 21 27 21.6716 27 22.5C27 23.3284 27.6716 24 28.5 24Z" stroke="currentColor" stroke-width="2" stroke-linecap="round" stroke-linejoin="round"/>
<path d="M7.5 24C8.32843 24 9 23.3284 9 22.5C9 21.6716 8.32843 21 7.5 21C6.67157 21 6 21.6716 6 22.5C6 23.3284 6.67157 24 7.5 24Z" stroke="currentColor" stroke-width="2" stroke-linecap="round" stroke-linejoin="round"/>
</svg>
