<svg width="36" height="36" viewBox="0 0 36 36" fill="none" xmlns="http://www.w3.org/2000/svg">
<path d="M30.6299 6.87006C29.8774 6.11492 28.9832 5.51576 27.9986 5.10694C27.014 4.69812 25.9585 4.48767 24.8924 4.48767C23.8263 4.48767 22.7707 4.69812 21.7862 5.10694C20.8016 5.51576 19.9074 6.11492 19.1549 6.87006L17.9999 8.04006L16.8449 6.87006C16.0924 6.11492 15.1982 5.51576 14.2136 5.10694C13.229 4.69812 12.1735 4.48767 11.1074 4.48767C10.0413 4.48767 8.98572 4.69812 8.00115 5.10694C7.01659 5.51576 6.1224 6.11492 5.36989 6.87006C2.18989 10.0501 1.99489 15.4201 5.99989 19.5001L17.9999 31.5001L29.9999 19.5001C34.0049 15.4201 33.8099 10.0501 30.6299 6.87006Z" stroke="currentColor" stroke-width="2" stroke-linecap="round" stroke-linejoin="round"/>
</svg>
