<svg  viewBox="0 0 55 55" fill="none" xmlns="http://www.w3.org/2000/svg">
<g opacity="0.5">
<path d="M47.75 27.7202V43.4702C47.75 44.6637 47.2759 45.8083 46.432 46.6522C45.5881 47.4961 44.4435 47.9702 43.25 47.9702H11.75C10.5565 47.9702 9.41193 47.4961 8.56802 46.6522C7.72411 45.8083 7.25 44.6637 7.25 43.4702V11.9702C7.25 10.7767 7.72411 9.63215 8.56802 8.78823C9.41193 7.94432 10.5565 7.47021 11.75 7.47021H27.5" stroke="black" stroke-width="2" stroke-linecap="round" stroke-linejoin="round"/>
<path d="M36.5 11.9702H50" stroke="black" stroke-width="2" stroke-linecap="round" stroke-linejoin="round"/>
<path d="M43.25 5.22021V18.7202" stroke="black" stroke-width="2" stroke-linecap="round" stroke-linejoin="round"/>
<path d="M20.75 25.4702C23.2353 25.4702 25.25 23.4555 25.25 20.9702C25.25 18.4849 23.2353 16.4702 20.75 16.4702C18.2647 16.4702 16.25 18.4849 16.25 20.9702C16.25 23.4555 18.2647 25.4702 20.75 25.4702Z" stroke="black" stroke-width="2" stroke-linecap="round" stroke-linejoin="round"/>
<path d="M47.75 34.4703L40.8065 27.5268C39.9626 26.6831 38.8182 26.2092 37.625 26.2092C36.4318 26.2092 35.2874 26.6831 34.4435 27.5268L14 47.9703" stroke="black" stroke-width="2" stroke-linecap="round" stroke-linejoin="round"/>
</g>
</svg>
