<svg width="99" height="63" viewBox="0 0 99 63" fill="none" xmlns="http://www.w3.org/2000/svg">
<path d="M20.544 0.32C20.864 0.32 21.024 0.501333 21.024 0.864V23.488C21.024 23.6587 20.9493 23.7973 20.8 23.904C20.672 24.0107 20.5013 24.064 20.288 24.064H15.904C15.7333 24.064 15.584 24.0427 15.456 24C15.3493 23.936 15.2107 23.7973 15.04 23.584L6.24 11.648C6.15467 11.5413 6.08 11.4987 6.016 11.52C5.952 11.5413 5.92 11.6053 5.92 11.712V23.36C5.94133 23.8293 5.68533 24.064 5.152 24.064H0.8C0.266667 24.064 0 23.8507 0 23.424V1.056C0 0.565333 0.234667 0.32 0.704 0.32H5.92C6.19733 0.32 6.4 0.362666 6.528 0.448C6.67733 0.512 6.83733 0.661334 7.008 0.896L14.688 11.584C14.8373 11.776 14.9547 11.872 15.04 11.872C15.1467 11.8507 15.2 11.712 15.2 11.456V0.992001C15.2 0.544 15.4347 0.32 15.904 0.32H20.544Z" fill="black"/>
<path d="M34.9998 0C36.3438 0 37.5811 0.181334 38.7118 0.544001C39.8638 0.906666 40.8771 1.41867 41.7518 2.08C42.6478 2.74133 43.3731 3.52 43.9277 4.416C44.5037 5.312 44.8984 6.29333 45.1118 7.36C45.2184 7.808 45.2291 8.096 45.1437 8.224C45.0798 8.352 44.9304 8.43733 44.6958 8.48L39.0957 8.832C38.8611 8.832 38.7118 8.78933 38.6478 8.704C38.5838 8.59733 38.5304 8.43733 38.4878 8.224C38.3171 7.28533 37.9864 6.50667 37.4958 5.888C37.0264 5.248 36.2584 4.928 35.1917 4.928C33.9971 4.928 33.0371 5.46133 32.3118 6.528C31.6078 7.57333 31.2558 9.39733 31.2558 12C31.2558 14.6453 31.5758 16.5013 32.2158 17.568C32.8771 18.6133 33.8584 19.136 35.1598 19.136C36.2264 19.136 37.1651 18.8693 37.9757 18.336C38.8078 17.7813 39.5011 16.8 40.0558 15.392C40.1624 15.136 40.4611 15.0507 40.9518 15.136L44.9518 15.936C45.0584 15.9573 45.1758 16.032 45.3037 16.16C45.4318 16.288 45.4637 16.5653 45.3997 16.992C45.3358 17.3333 45.1651 17.8027 44.8877 18.4C44.6104 18.9973 44.2158 19.648 43.7038 20.352C43.1917 21.0347 42.5304 21.6853 41.7197 22.304C40.9091 22.9013 39.9384 23.4027 38.8078 23.808C37.6984 24.192 36.4077 24.384 34.9357 24.384C32.6531 24.384 30.6584 23.8507 28.9517 22.784C27.2664 21.696 25.9544 20.2133 25.0158 18.336C24.0984 16.4373 23.6397 14.2827 23.6397 11.872C23.6397 9.46133 24.0984 7.37067 25.0158 5.6C25.9544 3.82933 27.2771 2.45333 28.9837 1.472C30.6904 0.490667 32.6958 0 34.9998 0Z" fill="black"/>
<path d="M70.1135 23.072C70.2415 23.328 70.2735 23.5627 70.2095 23.776C70.1668 23.968 69.9855 24.064 69.6655 24.064H63.4255C62.8495 24.064 62.4655 23.8507 62.2735 23.424L58.3695 14.528C58.1988 14.2507 57.9642 14.304 57.6655 14.688L55.3935 17.6C55.2655 17.7493 55.2015 17.984 55.2015 18.304V23.136C55.2015 23.7547 54.8495 24.064 54.1455 24.064H48.8015C48.4602 24.064 48.2255 24 48.0975 23.872C47.9908 23.744 47.9375 23.5413 47.9375 23.264V1.056C47.9375 0.565333 48.1402 0.32 48.5455 0.32H54.6255C55.0095 0.32 55.2015 0.544 55.2015 0.992001V9.088C55.2015 9.344 55.2442 9.472 55.3295 9.472C55.4362 9.472 55.5535 9.39733 55.6815 9.248L61.5695 0.992001C61.7402 0.757333 61.9108 0.586666 62.0815 0.48C62.2735 0.373333 62.5615 0.32 62.9455 0.32H67.8095C68.1722 0.32 68.4282 0.416 68.5775 0.608C68.7268 0.8 68.6948 1.01333 68.4815 1.248L63.2335 7.68C62.9988 7.97867 62.9668 8.32 63.1375 8.704L70.1135 23.072Z" fill="black"/>
<path d="M91.9427 14.688C91.9427 17.1413 91.5161 19.0827 90.6628 20.512C89.8094 21.92 88.6148 22.9227 87.0788 23.52C85.5427 24.096 83.7507 24.384 81.7028 24.384C79.1428 24.384 77.1161 23.9893 75.6227 23.2C74.1294 22.4107 73.0628 21.248 72.4228 19.712C71.7828 18.1547 71.4628 16.2667 71.4628 14.048V1.056C71.4628 0.565333 71.6654 0.32 72.0707 0.32H78.1507C78.5348 0.32 78.7268 0.544 78.7268 0.992001V14.816C78.7268 16.4373 79.0361 17.5893 79.6547 18.272C80.2947 18.9547 81.1588 19.296 82.2467 19.296C82.9081 19.296 83.5161 19.168 84.0707 18.912C84.6467 18.6347 85.1054 18.1653 85.4468 17.504C85.7881 16.8213 85.9587 15.8933 85.9587 14.72V1.056C85.9587 0.565333 86.1614 0.32 86.5667 0.32H91.3668C91.7508 0.32 91.9427 0.544 91.9427 0.992001V14.688Z" fill="black"/>
<path d="M20.832 27.032C20.832 28.5893 20.4587 29.9333 19.712 31.064C18.9653 32.1733 17.9307 33.0373 16.608 33.656C15.3067 34.2533 13.7813 34.552 12.032 34.552H7.648C7.392 34.552 7.264 34.6693 7.264 34.904V42.136C7.264 42.7547 6.912 43.064 6.208 43.064H0.832C0.512 43.064 0.288 43 0.16 42.872C0.0533334 42.744 0 42.5413 0 42.264V20.056C0 19.5653 0.202667 19.32 0.608 19.32H11.2C12.9493 19.32 14.5493 19.608 16 20.184C17.472 20.7387 18.6453 21.592 19.52 22.744C20.3947 23.8747 20.832 25.304 20.832 27.032ZM13.408 26.936C13.408 26.424 13.2907 25.9867 13.056 25.624C12.8213 25.24 12.5013 24.952 12.096 24.76C11.6907 24.5467 11.2427 24.44 10.752 24.44H8C7.50933 24.44 7.264 24.664 7.264 25.112V28.728C7.264 29.1973 7.44533 29.432 7.808 29.432H10.944C11.712 29.432 12.3093 29.1867 12.736 28.696C13.184 28.2053 13.408 27.6187 13.408 26.936Z" fill="black"/>
<path d="M19.2745 43.064C19.0398 43.064 18.8692 42.9573 18.7625 42.744C18.6558 42.5093 18.6665 42.2213 18.7945 41.88L26.5385 20.056C26.6452 19.8 26.7625 19.6187 26.8905 19.512C27.0185 19.384 27.2212 19.32 27.4985 19.32H33.8025C34.3572 19.32 34.7412 19.608 34.9545 20.184L42.6345 41.976C42.7198 42.1893 42.7198 42.424 42.6345 42.68C42.5705 42.936 42.4212 43.064 42.1865 43.064H35.9145C35.5518 43.064 35.3172 42.8827 35.2105 42.52L33.9625 38.84C33.9198 38.7333 33.8665 38.648 33.8025 38.584C33.7598 38.4987 33.6532 38.456 33.4825 38.456H26.6985C26.4425 38.456 26.2825 38.5733 26.2185 38.808L24.9065 42.584C24.8638 42.712 24.7785 42.8293 24.6505 42.936C24.5438 43.0213 24.3732 43.064 24.1385 43.064H19.2745ZM31.8825 33.016C32.2025 33.016 32.2985 32.8027 32.1705 32.376L30.2505 26.904C30.2078 26.7973 30.1438 26.744 30.0585 26.744C29.9732 26.744 29.9092 26.7973 29.8665 26.904L27.9145 32.344C27.7438 32.792 27.8505 33.016 28.2345 33.016H31.8825Z" fill="black"/>
<path d="M58.3315 25.688C57.9475 25.2613 57.4675 24.8667 56.8915 24.504C56.3155 24.1413 55.3982 23.96 54.1395 23.96C52.9448 23.96 52.1022 24.1307 51.6115 24.472C51.1208 24.8133 50.8755 25.1867 50.8755 25.592C50.8755 25.784 50.9288 25.9867 51.0355 26.2C51.1635 26.392 51.3768 26.584 51.6755 26.776C51.9742 26.9467 52.3902 27.096 52.9235 27.224L58.2355 28.6C60.2408 29.0907 61.7128 29.9653 62.6515 31.224C63.6115 32.4827 64.0915 33.9333 64.0915 35.576C64.0915 37.1547 63.6755 38.5307 62.8435 39.704C62.0115 40.8773 60.8275 41.784 59.2915 42.424C57.7768 43.064 55.9635 43.384 53.8515 43.384C52.2942 43.384 50.8115 43.2133 49.4035 42.872C48.0168 42.5093 46.8008 42.008 45.7555 41.368C44.7102 40.728 43.9315 39.992 43.4195 39.16C43.2915 38.9253 43.2382 38.7333 43.2595 38.584C43.2808 38.4347 43.3982 38.2747 43.6115 38.104L46.9075 35.832C47.2062 35.64 47.4515 35.5653 47.6435 35.608C47.8355 35.6293 47.9955 35.7253 48.1235 35.896C48.5928 36.4933 49.0622 36.984 49.5315 37.368C50.0008 37.752 50.5342 38.0293 51.1315 38.2C51.7502 38.3707 52.4755 38.456 53.3075 38.456C54.4808 38.456 55.4195 38.296 56.1235 37.976C56.8275 37.656 57.1795 37.1973 57.1795 36.6C57.1795 36.344 57.1048 36.1093 56.9555 35.896C56.8062 35.6613 56.5822 35.4587 56.2835 35.288C56.0062 35.1173 55.6328 34.9787 55.1635 34.872L50.2995 33.688C49.0195 33.368 47.9102 32.8667 46.9715 32.184C46.0328 31.48 45.3075 30.648 44.7955 29.688C44.2835 28.728 44.0275 27.6933 44.0275 26.584C44.0275 25.1973 44.4222 23.928 45.2115 22.776C46.0222 21.624 47.1635 20.7067 48.6355 20.024C50.1288 19.3413 51.8782 19 53.8835 19C55.1635 19 56.3795 19.1493 57.5315 19.448C58.7048 19.7253 59.7502 20.12 60.6675 20.632C61.5848 21.144 62.2888 21.752 62.7795 22.456C62.8862 22.6053 62.9608 22.7653 63.0035 22.936C63.0675 23.0853 62.9928 23.2453 62.7795 23.416L59.2915 25.944C59.1422 26.0507 59.0035 26.0933 58.8755 26.072C58.7475 26.0293 58.5662 25.9013 58.3315 25.688Z" fill="black"/>
<path d="M64.9195 20.056C64.9195 19.8427 64.9835 19.672 65.1115 19.544C65.2395 19.3947 65.4422 19.32 65.7195 19.32H84.8555C85.1328 19.32 85.3355 19.3947 85.4635 19.544C85.5915 19.672 85.6555 19.8427 85.6555 20.056V23.864C85.6555 24.2693 85.4208 24.472 84.9515 24.472H79.2875C79.0315 24.472 78.9035 24.5787 78.9035 24.792V42.36C78.9035 42.8293 78.7008 43.064 78.2955 43.064H72.2155C71.8315 43.064 71.6395 42.8507 71.6395 42.424V24.92C71.6395 24.6213 71.5222 24.472 71.2875 24.472H65.6555C65.1648 24.472 64.9195 24.2693 64.9195 23.864V20.056Z" fill="black"/>
<path d="M0 39.056C0 38.5653 0.202667 38.32 0.608 38.32H17.888C18.272 38.32 18.464 38.544 18.464 38.992L18.432 42.704C18.432 43.28 18.1547 43.568 17.6 43.568H8C7.50933 43.568 7.264 43.7707 7.264 44.176V46.896C7.264 47.344 7.456 47.568 7.84 47.568H13.6C14.048 47.568 14.272 47.7813 14.272 48.208V52.176C14.272 52.3253 14.2293 52.4533 14.144 52.56C14.0587 52.6667 13.9093 52.72 13.696 52.72H7.776C7.43467 52.72 7.264 52.8693 7.264 53.168V56.368C7.264 56.6667 7.392 56.816 7.648 56.816H18.048C18.5173 56.816 18.752 57.0187 18.752 57.424V61.36C18.752 61.552 18.688 61.7227 18.56 61.872C18.4533 62 18.2613 62.064 17.984 62.064H0.864C0.288 62.064 0 61.7973 0 61.264V39.056Z" fill="black"/>
<path d="M42.8128 60.432C43.2181 61.0507 43.3568 61.4773 43.2288 61.712C43.1007 61.9467 42.8127 62.064 42.3647 62.064H36.6048C35.9434 62.064 35.4954 61.8507 35.2607 61.424L31.7408 55.408C31.5701 55.1093 31.4208 54.96 31.2928 54.96C31.1648 54.9387 31.0154 55.0773 30.8448 55.376L27.3888 61.424C27.2607 61.6587 27.0794 61.8293 26.8447 61.936C26.6101 62.0213 26.3328 62.064 26.0128 62.064H21.4688C21.0208 62.064 20.7327 61.9573 20.6047 61.744C20.4981 61.5093 20.6474 61.072 21.0527 60.432L27.3568 50.672C27.5274 50.4373 27.6021 50.2453 27.5807 50.096C27.5807 49.9467 27.5061 49.7547 27.3568 49.52L20.8927 39.44C20.7434 39.2053 20.7008 38.96 20.7647 38.704C20.8287 38.448 21.0421 38.32 21.4048 38.32H27.4528C27.8154 38.32 28.0821 38.3733 28.2528 38.48C28.4447 38.5867 28.6047 38.7573 28.7327 38.992L31.6448 44.144C31.7514 44.3147 31.8687 44.4 31.9967 44.4C32.1461 44.4 32.2634 44.3147 32.3488 44.144L35.2607 38.992C35.3887 38.7573 35.5381 38.5867 35.7088 38.48C35.9008 38.3733 36.1674 38.32 36.5088 38.32H41.4688C41.8527 38.32 42.0554 38.4373 42.0768 38.672C42.1194 38.9067 42.0554 39.1413 41.8848 39.376L35.8368 48.656C35.6874 48.8693 35.6234 49.0613 35.6448 49.232C35.6661 49.3813 35.7514 49.5733 35.9007 49.808L42.8128 60.432Z" fill="black"/>
<path d="M44.4308 62.064C44.1961 62.064 44.0254 61.9573 43.9188 61.744C43.8121 61.5093 43.8228 61.2213 43.9507 60.88L51.6948 39.056C51.8014 38.8 51.9187 38.6187 52.0467 38.512C52.1747 38.384 52.3774 38.32 52.6548 38.32H58.9588C59.5134 38.32 59.8974 38.608 60.1108 39.184L67.7907 60.976C67.8761 61.1893 67.8761 61.424 67.7907 61.68C67.7267 61.936 67.5774 62.064 67.3428 62.064H61.0708C60.7081 62.064 60.4734 61.8827 60.3667 61.52L59.1188 57.84C59.0761 57.7333 59.0228 57.648 58.9588 57.584C58.9161 57.4987 58.8094 57.456 58.6388 57.456H51.8548C51.5988 57.456 51.4388 57.5733 51.3748 57.808L50.0628 61.584C50.0201 61.712 49.9347 61.8293 49.8068 61.936C49.7001 62.0213 49.5294 62.064 49.2948 62.064H44.4308ZM57.0387 52.016C57.3587 52.016 57.4548 51.8027 57.3268 51.376L55.4067 45.904C55.3641 45.7973 55.3001 45.744 55.2148 45.744C55.1294 45.744 55.0654 45.7973 55.0228 45.904L53.0708 51.344C52.9001 51.792 53.0068 52.016 53.3908 52.016H57.0387Z" fill="black"/>
<path d="M71.1133 62.064C70.5586 62.064 70.2812 61.7653 70.2812 61.168V39.056C70.2812 38.5653 70.5052 38.32 70.9532 38.32H79.9133C80.1906 38.32 80.3826 38.3627 80.4893 38.448C80.6172 38.512 80.7239 38.6613 80.8092 38.896L84.1373 49.072C84.2013 49.2427 84.2759 49.328 84.3613 49.328C84.4466 49.3067 84.5106 49.2213 84.5533 49.072L87.5293 39.248C87.6999 38.6293 87.9879 38.32 88.3932 38.32H97.6413C98.0253 38.32 98.2173 38.544 98.2173 38.992V61.136C98.2173 61.7547 97.8759 62.064 97.1933 62.064H91.7852C91.4652 62.064 91.2412 62 91.1133 61.872C91.0066 61.744 90.9532 61.5413 90.9532 61.264V46.896C90.9532 46.7253 90.8999 46.64 90.7933 46.64C90.7079 46.64 90.6333 46.736 90.5693 46.928L85.9613 61.488C85.8119 61.872 85.5559 62.064 85.1933 62.064H81.8333C81.4492 62.064 81.1933 61.872 81.0653 61.488L76.4573 47.184C76.3719 46.928 76.2866 46.8213 76.2012 46.864C76.1159 46.8853 76.0732 47.0027 76.0732 47.216V61.36C76.0732 61.6373 76.0306 61.8293 75.9453 61.936C75.8599 62.0213 75.6679 62.064 75.3692 62.064H71.1133Z" fill="black"/>
</svg>
