<svg width="84" height="65" viewBox="0 0 84 65" fill="none" xmlns="http://www.w3.org/2000/svg">
<path d="M63.7177 45.1197H62.6851C62.5182 44.7345 62.1531 44.5062 61.7515 44.5062C61.1362 44.5062 60.7189 44.9865 60.7189 45.5334C60.7189 46.104 61.1466 46.5796 61.7568 46.5796C62.1479 46.5796 62.4817 46.3798 62.6851 45.9851H63.7177C63.4778 46.8316 62.6798 47.369 61.7672 47.369C61.23 47.369 60.7242 47.1978 60.3278 46.8411C59.9106 46.4702 59.7333 46.0232 59.7333 45.4906C59.7333 44.5585 60.6146 43.7168 61.7203 43.7168C62.2522 43.7168 62.6798 43.8499 63.0658 44.1495C63.4308 44.4349 63.6499 44.7582 63.7177 45.1197Z" fill="black"/>
<path d="M67.5353 47.3024H66.3828L65.3293 45.7807H65.3189V47.3024H64.3332V43.7834H65.3189V45.3669H65.3293L66.4193 43.7834H67.4519L66.1742 45.5381L67.5353 47.3024Z" fill="black"/>
<path d="M69.8823 45.9328V43.7834H70.868V45.9376C70.868 46.3038 70.8054 46.5796 70.675 46.7698C70.4195 47.1455 69.9866 47.369 69.4025 47.369C69.0792 47.369 68.8028 47.3119 68.5785 47.193C68.1248 46.9505 67.9057 46.6224 67.9057 45.9423V43.7834H68.8914V45.9281C68.8914 46.3656 69.0427 46.5796 69.3921 46.5796C69.7258 46.5796 69.8823 46.4274 69.8823 45.9328Z" fill="black"/>
<path d="M62.7111 53.6525H60.114C60.1453 54.1708 60.6668 54.5941 61.2196 54.5941C61.6629 54.5941 62.0853 54.361 62.2418 53.9806H62.6277C62.4087 54.5418 61.835 54.8937 61.2248 54.8937C60.4165 54.8937 59.7385 54.2945 59.7385 53.5336C59.7385 52.7775 60.4217 52.164 61.2196 52.164C62.0749 52.164 62.7163 52.8346 62.7163 53.5526C62.7163 53.5859 62.7111 53.6192 62.7111 53.6525ZM60.114 53.3529H62.3409C62.2366 52.8298 61.7828 52.4636 61.2196 52.4636C60.6876 52.4636 60.2131 52.8155 60.114 53.3529Z" fill="black"/>
<path d="M65.3729 54.8318H64.94L64.1838 53.7904L63.4276 54.8318H62.9948L63.97 53.5098L62.9948 52.2306H63.4329L64.1838 53.234L64.9296 52.2306H65.3729L64.3977 53.5098L65.3729 54.8318Z" fill="black"/>
<path d="M68.6765 54.8318H68.3115V54.3753H68.301C68.0664 54.6987 67.6544 54.8937 67.1902 54.8937C66.3349 54.8937 65.657 54.304 65.657 53.5241C65.657 52.7442 66.3558 52.164 67.1902 52.164C67.6648 52.164 68.0716 52.359 68.301 52.6871H68.3115V52.2306H68.6765V54.8318ZM67.1902 54.5941C67.8265 54.5941 68.3323 54.1185 68.3323 53.5336C68.3323 52.9534 67.8317 52.4636 67.185 52.4636C66.5279 52.4636 66.022 52.9201 66.022 53.5384C66.022 54.1375 66.5175 54.5941 67.1902 54.5941Z" fill="black"/>
<path d="M73.5455 54.8318H73.1804V53.3053C73.1804 52.8108 72.9197 52.4636 72.4034 52.4636C71.9027 52.4636 71.6263 52.806 71.6263 53.3149V54.8318H71.2613V53.3101C71.2613 52.8013 70.9901 52.4636 70.4842 52.4636C69.9783 52.4636 69.7071 52.8013 69.7071 53.3101V54.8318H69.3421V52.2306H69.7071V52.5302C69.8792 52.2829 70.1713 52.164 70.4842 52.164C70.8962 52.164 71.2404 52.34 71.4438 52.6634C71.668 52.3447 71.9862 52.164 72.4034 52.164C73.1387 52.164 73.5455 52.6586 73.5455 53.2721V54.8318Z" fill="black"/>
<path d="M60.2391 63.2743H59.8741V59.7601H60.2391V60.2166H60.2496C60.5155 59.8742 60.9067 59.6935 61.3604 59.6935C62.2261 59.6935 62.8937 60.2974 62.8937 61.0535C62.8937 61.8192 62.2366 62.4231 61.3604 62.4231C60.9171 62.4231 60.5051 62.2424 60.2496 61.9048H60.2391V63.2743ZM62.5286 61.0678C62.5286 60.4686 62.0488 59.9931 61.3552 59.9931C60.7398 59.9931 60.2183 60.4686 60.2183 61.063C60.2183 61.6432 60.7137 62.1235 61.3604 62.1235C62.0384 62.1235 62.5286 61.6622 62.5286 61.0678Z" fill="black"/>
<path d="M66.3338 62.3613H65.9687V61.9048H65.9583C65.7236 62.2281 65.3116 62.4231 64.8475 62.4231C63.9922 62.4231 63.3142 61.8334 63.3142 61.0535C63.3142 60.2736 64.013 59.6935 64.8475 59.6935C65.322 59.6935 65.7288 59.8884 65.9583 60.2166H65.9687V59.7601H66.3338V62.3613ZM64.8475 62.1235C65.4837 62.1235 65.9896 61.648 65.9896 61.063C65.9896 60.4829 65.4889 59.9931 64.8423 59.9931C64.1851 59.9931 63.6793 60.4496 63.6793 61.0678C63.6793 61.667 64.1747 62.1235 64.8475 62.1235Z" fill="black"/>
<path d="M68.4544 60.402H68.0893C68.0684 60.15 67.8963 59.9931 67.6617 59.9931C67.4218 59.9931 67.2288 60.1595 67.2288 60.383C67.2288 60.5732 67.3748 60.7064 67.7242 60.811C68.4179 61.0202 68.5534 61.2723 68.5534 61.6432C68.5534 62.1187 68.204 62.4231 67.6564 62.4231C67.1662 62.4231 66.7803 62.1045 66.7803 61.6099V61.5909H67.1454C67.1506 61.938 67.3487 62.1235 67.6564 62.1235C67.985 62.1235 68.1884 61.9571 68.1884 61.6575C68.1884 61.4054 68.0111 61.2675 67.6825 61.1581C67.1819 60.9917 66.8637 60.8633 66.8637 60.4163C66.8637 59.9978 67.2079 59.6935 67.6773 59.6935C68.1049 59.6935 68.4544 59.9883 68.4544 60.402Z" fill="black"/>
<path d="M69.7148 62.3613H69.3498V60.0596H68.75V59.7601H69.3498V58.8423H69.7148V59.7601H70.398V60.0596H69.7148V62.3613Z" fill="black"/>
<path d="M73.6151 61.1819H71.0179C71.0492 61.7003 71.5707 62.1235 72.1235 62.1235C72.5668 62.1235 72.9893 61.8905 73.1457 61.5101H73.5316C73.3126 62.0712 72.7389 62.4231 72.1288 62.4231C71.3204 62.4231 70.6424 61.8239 70.6424 61.063C70.6424 60.3069 71.3256 59.6935 72.1235 59.6935C72.9788 59.6935 73.6203 60.364 73.6203 61.0821C73.6203 61.1154 73.6151 61.1486 73.6151 61.1819ZM71.0179 60.8823H73.2448C73.1405 60.3592 72.6868 59.9931 72.1235 59.9931C71.5916 59.9931 71.117 60.345 71.0179 60.8823Z" fill="black"/>
<path d="M74.5402 62.3613H74.1751V59.7601H74.5402V60.1357H74.5506C74.6758 59.8647 74.8948 59.7173 75.3538 59.6935V60.0454H75.3485C74.8218 60.0929 74.5402 60.4068 74.5402 60.8253V62.3613Z" fill="black"/>
<path d="M78.3999 62.3613H78.0349V60.9109C78.0349 60.3259 77.649 59.9931 77.1483 59.9931C76.5955 59.9931 76.2565 60.3783 76.2565 60.8871V62.3613H75.8915V59.7601H76.2565V60.0929H76.2669C76.4495 59.8409 76.7728 59.6935 77.1431 59.6935C77.9306 59.6935 78.3999 60.188 78.3999 60.9109V62.3613Z" fill="black"/>
<path d="M63.5155 34.0204L46.4351 49.8582C46.0082 50.254 45.3022 50.1943 44.9587 49.7343L37.9653 40.3538L41.1447 37.406L45.6099 45.106C45.8269 45.4819 46.4017 45.4952 46.6402 45.1303L53.9151 34.0182H63.5155V34.0204Z" fill="black"/>
<path d="M35.9237 35.9133C37.0513 35.9133 37.9654 35.0658 37.9654 34.0204C37.9654 32.975 37.0513 32.1275 35.9237 32.1275C34.7961 32.1275 33.8819 32.975 33.8819 34.0204C33.8819 35.0658 34.7961 35.9133 35.9237 35.9133Z" fill="black"/>
<path d="M21.0566 2.74512L34.9002 26.63L30.6641 30.5574L21.6481 18.4679C21.183 17.8443 20.1526 17.9704 19.8783 18.6846L2.63564 63.562H0L16.0977 3.30239C16.7083 1.11314 19.8997 0.754894 21.0542 2.74733L21.0566 2.74512Z" fill="black"/>
</svg>
