<svg width="16" height="16" viewBox="0 0 36 36" fill="none" xmlns="http://www.w3.org/2000/svg">
<g clip-path="url(#clip0_384_339)">
<path d="M8.14667 1.33356H7.85333C7.49971 1.33356 7.16057 1.47403 6.91053 1.72408C6.66048 1.97413 6.52 2.31327 6.52 2.66689V2.78689C6.51976 3.02071 6.45804 3.25035 6.34103 3.45278C6.22401 3.65521 6.05583 3.82332 5.85333 3.94022L5.56667 4.10689C5.36398 4.22391 5.13405 4.28552 4.9 4.28552C4.66595 4.28552 4.43603 4.22391 4.23333 4.10689L4.13333 4.05356C3.82738 3.87707 3.46389 3.82919 3.12267 3.92043C2.78145 4.01167 2.49037 4.23458 2.31333 4.54022L2.16667 4.79356C1.99018 5.09951 1.9423 5.463 2.03354 5.80422C2.12478 6.14545 2.34769 6.43652 2.65333 6.61356L2.75333 6.68022C2.95485 6.79656 3.12241 6.96362 3.23937 7.16478C3.35632 7.36594 3.4186 7.59421 3.42 7.82689V8.16689C3.42093 8.40184 3.35977 8.63286 3.2427 8.83656C3.12563 9.04027 2.95681 9.20942 2.75333 9.32689L2.65333 9.38689C2.34769 9.56392 2.12478 9.855 2.03354 10.1962C1.9423 10.5374 1.99018 10.9009 2.16667 11.2069L2.31333 11.4602C2.49037 11.7659 2.78145 11.9888 3.12267 12.08C3.46389 12.1713 3.82738 12.1234 4.13333 11.9469L4.23333 11.8936C4.43603 11.7765 4.66595 11.7149 4.9 11.7149C5.13405 11.7149 5.36398 11.7765 5.56667 11.8936L5.85333 12.0602C6.05583 12.1771 6.22401 12.3452 6.34103 12.5477C6.45804 12.7501 6.51976 12.9797 6.52 13.2136V13.3336C6.52 13.6872 6.66048 14.0263 6.91053 14.2764C7.16057 14.5264 7.49971 14.6669 7.85333 14.6669H8.14667C8.50029 14.6669 8.83943 14.5264 9.08948 14.2764C9.33952 14.0263 9.48 13.6872 9.48 13.3336V13.2136C9.48024 12.9797 9.54196 12.7501 9.65898 12.5477C9.77599 12.3452 9.94418 12.1771 10.1467 12.0602L10.4333 11.8936C10.636 11.7765 10.866 11.7149 11.1 11.7149C11.334 11.7149 11.564 11.7765 11.7667 11.8936L11.8667 11.9469C12.1726 12.1234 12.5361 12.1713 12.8773 12.08C13.2186 11.9888 13.5096 11.7659 13.6867 11.4602L13.8333 11.2002C14.0098 10.8943 14.0577 10.5308 13.9665 10.1896C13.8752 9.84833 13.6523 9.55726 13.3467 9.38022L13.2467 9.32689C13.0432 9.20942 12.8744 9.04027 12.7573 8.83656C12.6402 8.63286 12.5791 8.40184 12.58 8.16689V7.83356C12.5791 7.59861 12.6402 7.36759 12.7573 7.16389C12.8744 6.96018 13.0432 6.79103 13.2467 6.67356L13.3467 6.61356C13.6523 6.43652 13.8752 6.14545 13.9665 5.80422C14.0577 5.463 14.0098 5.09951 13.8333 4.79356L13.6867 4.54022C13.5096 4.23458 13.2186 4.01167 12.8773 3.92043C12.5361 3.82919 12.1726 3.87707 11.8667 4.05356L11.7667 4.10689C11.564 4.22391 11.334 4.28552 11.1 4.28552C10.866 4.28552 10.636 4.22391 10.4333 4.10689L10.1467 3.94022C9.94418 3.82332 9.77599 3.65521 9.65898 3.45278C9.54196 3.25035 9.48024 3.02071 9.48 2.78689V2.66689C9.48 2.31327 9.33952 1.97413 9.08948 1.72408C8.83943 1.47403 8.50029 1.33356 8.14667 1.33356Z" stroke="currentColor" stroke-linecap="round" stroke-linejoin="round"/>
<path d="M8 10.0002C9.10457 10.0002 10 9.10481 10 8.00024C10 6.89567 9.10457 6.00024 8 6.00024C6.89543 6.00024 6 6.89567 6 8.00024C6 9.10481 6.89543 10.0002 8 10.0002Z" stroke="currentColor" stroke-linecap="round" stroke-linejoin="round"/>
</g>
<defs>
<clipPath id="clip0_384_339">
<rect width="16" height="16" fill="white" transform="translate(0 0.000244141)"/>
</clipPath>
</defs>
</svg>
